<svg xmlns="http://www.w3.org/2000/svg" xmlns:xlink="http://www.w3.org/1999/xlink" width="64" height="64" viewBox="0 0 64 64" id="coding">
  <defs>
    <path id="path-1" d="M.06 64V.04H64V64z"></path>
  </defs>
  <g id="Page-1" fill="none" fill-rule="evenodd" stroke="none" stroke-width="1">
    <g id="dev">
      <g id="Group-3">
        <mask id="mask-2" fill="#fff">
          <use xlink:href="#path-1"></use>
        </mask>
        <path id="Fill-1" fill="#73BBA3" d="M64 32c0 17.673-14.327 32-32 32C14.327 64 0 49.673 0 32 0 14.327 14.327 0 32 0c17.673 0 32 14.327 32 32" mask="url(#mask-2)"></path>
      </g>
      <path id="Fill-4" fill="#629986" d="M42.461 44a1.999 1.999 0 0 1-1.051-3.703l10.124-6.241.007-.056-.007-.056-10.124-6.241a2.001 2.001 0 0 1 2.099-3.406l10.63 6.555.165.165A4.186 4.186 0 0 1 55.541 34a4.19 4.19 0 0 1-1.236 2.983l-.166.165-10.63 6.555c-.327.201-.69.297-1.048.297"></path>
      <path id="Fill-5" fill="#629986" d="M21.539 44c-.358 0-.721-.096-1.048-.297l-10.63-6.555-.166-.165A4.19 4.19 0 0 1 8.459 34c0-1.127.439-2.187 1.237-2.983l.165-.165 10.63-6.555a2 2 0 0 1 2.099 3.406l-10.124 6.241-.007.056.007.056 10.124 6.241A2.001 2.001 0 0 1 21.539 44"></path>
      <path id="Fill-6" fill="#629986" d="M25.5 53a2 2 0 0 1-1.868-2.714l13-34a2 2 0 1 1 3.736 1.428l-13 34A2 2 0 0 1 25.5 53"></path>
      <path id="Fill-7" fill="#FFFFFE" d="M42.461 42a1.999 1.999 0 0 1-1.051-3.702l10.123-6.241v-.114L41.41 25.702a2 2 0 1 1 2.099-3.404l10.631 6.554.165.165a4.225 4.225 0 0 1 0 5.966l-.165.165-10.631 6.554c-.327.202-.69.298-1.048.298"></path>
      <path id="Fill-8" fill="#FFFFFE" d="M21.539 42c-.358 0-.721-.096-1.048-.298L9.86 35.148l-.165-.165a4.225 4.225 0 0 1 0-5.966l.165-.165 10.631-6.554a1.999 1.999 0 1 1 2.099 3.404l-10.123 6.241v.114l10.123 6.241A2 2 0 0 1 21.539 42"></path>
      <path id="Fill-9" fill="#FFFFFE" d="M25.5 51.001a2 2 0 0 1-1.868-2.715l13-34a2 2 0 1 1 3.736 1.428l-13 34a2 2 0 0 1-1.868 1.287"></path>
    </g>
  </g>
</svg>
